<svg xmlns="http://www.w3.org/2000/svg" width="20" height="20">
    <path fill="#90FFBD" fill-rule="evenodd" d="M18.66 5.104a10.094 10.094 0 0 0-3.64-3.731A9.606 9.606 0 0 0 10-.002a9.604 9.604 0 0 0-5.02 1.375 10.087 10.087 0 0 0-3.64 3.731C.445 6.675-.002 8.391-.002 10.251c0 2.233.636 4.242 1.908 6.027 1.272 1.784 2.915 3.019 4.929 3.704.235.045.408.013.521-.093a.529.529 0 0 0 .169-.4l-.006-.721c-.005-.454-.007-.85-.007-1.188l-.299.053a3.673 3.673 0 0 1-.723.046 5.357 5.357 0 0 1-.905-.093 1.986 1.986 0 0 1-.873-.4 1.685 1.685 0 0 1-.572-.821l-.131-.307a3.333 3.333 0 0 0-.41-.681c-.187-.249-.375-.418-.566-.507l-.092-.067a1.015 1.015 0 0 1-.169-.16.743.743 0 0 1-.117-.188c-.026-.062-.004-.113.065-.153.07-.04.196-.06.378-.06l.26.041c.174.035.389.141.645.32.256.177.466.409.631.693.2.365.441.643.723.835.282.191.567.287.853.287.287 0 .534-.022.742-.067.209-.044.404-.111.586-.199.078-.597.291-1.056.639-1.376a8.77 8.77 0 0 1-1.335-.24 5.227 5.227 0 0 1-1.224-.521 3.532 3.532 0 0 1-1.049-.894c-.278-.357-.506-.824-.684-1.402-.177-.579-.266-1.246-.266-2.002 0-1.078.343-1.994 1.029-2.751-.322-.81-.291-1.717.091-2.723.251-.08.625-.02 1.12.18.494.2.857.372 1.087.514.23.142.415.263.554.361a9 9 0 0 1 2.5-.347c.859 0 1.693.115 2.501.347l.495-.32c.338-.215.738-.41 1.197-.588.461-.178.812-.227 1.055-.147.391 1.006.426 1.914.105 2.723.686.757 1.028 1.673 1.028 2.751 0 .756-.089 1.426-.267 2.008-.178.583-.407 1.05-.69 1.402a3.659 3.659 0 0 1-1.054.888 5.25 5.25 0 0 1-1.225.521 8.65 8.65 0 0 1-1.335.24c.452.401.678 1.032.678 1.895v2.818c0 .159.054.293.162.399.109.106.28.138.515.094 2.014-.685 3.657-1.92 4.929-3.705 1.272-1.784 1.908-3.793 1.908-6.027-.001-1.859-.448-3.575-1.342-5.146z"/>
</svg>
