<svg viewBox="0 0 133.81 202.3" xmlns="http://www.w3.org/2000/svg"><path d="m2 116.33 4.88-2.13 60.05-26.1 64.88 28.23-24.36 50.33-59.65 8.43-44.78-48.38z" fill="#133444"/><path d="m118.32 85.66a66.7 66.7 0 0 0 -42.52-23.52l-1.06-.14a64.78 64.78 0 0 0 -15.62 0l-1.07.13a66.62 66.62 0 0 0 -42.52 23.53l-2.7 4.48-4.49 7.46-3.28 5.46a1.64 1.64 0 0 1 -.18.44v.09l7.23 4.31 46 27.2 8.89 5.24v-65l-8.88 4v-9.7l8.88-4 8.87 4 45.13 20.55z" fill="#c42370" transform="translate(0 -.4)"/><path d="m133.81 132.88a71.69 71.69 0 0 1 -26.23 55 66.78 66.78 0 0 1 -21.12 11.72 62.14 62.14 0 0 1 -19.46 3.1c-37 0-67-32.89-67-69.82a68.57 68.57 0 0 1 2-16.2l64.88 38.39 64.89-38.39a64.63 64.63 0 0 1 2.04 16.2z" fill="#1c4d6b" transform="translate(0 -.4)"/><path d="m59.12 61.65 7.81 3.51-8.88 4.03v-8.03z"/><path d="m58.05 78.96 8.88-4.04v65.02l-8.88-5.24z"/><path d="m66.93 74.92v65.02l62.18-36.75z" fill="#1d4259"/><path d="m66.93 0v74.92l62.18 28.27z" fill="#4b6b9a"/><path d="m66.93 75.32v65l-8.88-5.24-53.21-31.49c0-.13.14-.31.18-.44l7.77-12.92 45.22-20.5v9.67z" fill="#343535" transform="translate(0 -.4)"/><path d="m66.93 74.92v65.02l-8.88-5.24-53.26-31.46-.04-.05.09-.09 53.21-24.14z" fill="#3e5578"/><path d="m66.93 0v74.92l-62.18 28.27z" fill="#6db2d8"/><g transform="translate(0 -.4)"><g fill="#335f8a"><path d="m41.76 197.37c.94.4 1.87.8 2.8 1.15-.93-.35-1.86-.75-2.8-1.15z"/><path d="m44.56 198.52c.93.36 1.91.72 2.88 1a24.52 24.52 0 0 1 -2.88-1z"/><path d="m49.89 200.34c.75.23 1.46.4 2.21.58-.71-.18-1.46-.4-2.21-.58z"/></g><path d="m2 116.73 64.88 38.39a75.28 75.28 0 0 1 -4.66 17c-5.22 12.6-15.66 25.88-36 15.75a71.65 71.65 0 0 1 -26.22-54.99 70.35 70.35 0 0 1 2-16.15z" fill="#6db2d8"/><path d="m107.54 187.87-.18.14c-.35.26-.67.53-1 .8l-.09.08c-.35.31-.75.58-1.11.85a12.07 12.07 0 0 1 -1.24.88 12.16 12.16 0 0 0 -1.24.89c-.4.31-.76.49-1.11.76l-.23.13c-.39.27-.79.49-1.15.75a.15.15 0 0 0 -.13.09c-.4.27-.8.49-1.2.76s-.89.49-1.33.75-.89.49-1.33.71l-1.33.66c-.44.22-.89.45-1.38.67s-.93.44-1.37.62c-.93.4-1.87.8-2.8 1.15s-1.91.71-2.88 1a12 12 0 0 1 -1.16.36l-1.28.4c-.76.22-1.47.4-2.22.58-.27.08-.58.13-.85.22l-.48.09-1.2.26c-.4.09-.71.14-1.11.22a8.37 8.37 0 0 1 -1 .18c-.36 0-.76.14-1.11.18a1.08 1.08 0 0 0 -.53.09l-.85.09h-.44a7.32 7.32 0 0 1 -.93.09 11.11 11.11 0 0 1 -1.16.09h-.89c-.32 0-.53.05-.79.05h-4.84a8.69 8.69 0 0 1 -1.25 0h-.93c-.27 0-.53-.05-.8-.05h-.89a11.13 11.13 0 0 0 -1.15-.09 3.27 3.27 0 0 1 -.93-.09h-.45a6 6 0 0 0 -.84-.09 2.35 2.35 0 0 1 -.53-.09 7.13 7.13 0 0 1 -1.11-.18 6.32 6.32 0 0 1 -1-.18 10.89 10.89 0 0 1 -1.11-.22c-.36-.09-.8-.17-1.2-.26l-.49-.09a7 7 0 0 1 -.92-.12c-.76-.18-1.51-.4-2.22-.58l-1.33-.4c-.4-.13-.8-.22-1.16-.36-1-.31-1.91-.66-2.88-1s-1.91-.75-2.8-1.15c-.44-.22-.93-.4-1.38-.62l-1.37-.67-1.33-.66c-.44-.22-.88-.49-1.33-.71s-.89-.49-1.33-.75-.8-.49-1.2-.76l-.13-.09a9.55 9.55 0 0 1 -1.16-.75l-.22-.13c-.35-.22-.75-.49-1.11-.76s-.84-.57-1.24-.89-.84-.57-1.24-.88l-1.11-.84-.09-.08c-.36-.27-.67-.54-1-.8l-.18-.14c20.28 10.12 30.8-3.19 36-15.71a75.31 75.31 0 0 0 4.67-17 75.17 75.17 0 0 0 4.66 17.05c5.26 12.36 15.74 25.68 36.02 15.55z" fill="#529bba"/><path d="m81.71 200.92c.75-.18 1.51-.4 2.22-.58-.71.18-1.47.4-2.22.58z" fill="#335f8a"/><path d="m86.41 199.55c1-.31 1.91-.67 2.89-1-.94.37-1.91.69-2.89 1z" fill="#335f8a"/><path d="m89.3 198.52c.93-.35 1.86-.75 2.79-1.15-.93.4-1.86.8-2.79 1.15z" fill="#335f8a"/><path d="m133.81 132.88a71.69 71.69 0 0 1 -26.23 55c-20.28 10.12-30.8-3.2-36-15.71a75.43 75.43 0 0 1 -4.66-17l64.88-38.39a65.7 65.7 0 0 1 2.01 16.1z" fill="#4b6b9a"/></g></svg>