<svg xmlns="http://www.w3.org/2000/svg" width="85" height="77">
    <path fill="#90FFBD" fill-rule="evenodd" d="M12.5 2.5h14v14c0 5.523-4.477 10-10 10h-14v-14c0-5.523 4.477-10 10-10z"/>
    <path fill="none" stroke="#90FFBD" d="M12.5 2.5h70v62c0 5.523-4.477 10-10 10h-70v-62c0-5.523 4.477-10 10-10z"/>
    <path fill="#111" fill-rule="evenodd" d="M13.5 16.5l-5-3 5 7 8-12-8 8z"/>
    <path fill="#90FFBD" fill-rule="evenodd" d="M65.96 62.769c.519 0 .847-.021 1.312-.073h.042c.096 0 .18.052.18.155v.372c0 .134-.042.196-.211.227a7.972 7.972 0 0 1-1.323.113c-1.439 0-2.254-.99-2.254-2.507v-.805c0-1.516.804-2.506 2.254-2.506.487 0 .974.051 1.323.113.169.031.211.083.211.227v.371c0 .104-.084.155-.18.155h-.042a10.682 10.682 0 0 0-1.312-.072c-.846 0-1.323.547-1.323 1.712v.805c0 1.156.466 1.713 1.323 1.713zm-7.078-1.826v.144c0 1.228.497 1.682 1.471 1.682.613 0 1.396-.042 1.883-.114h.053c.085 0 .169.041.169.145v.35c0 .135-.042.207-.211.238a9.872 9.872 0 0 1-1.894.175c-1.217 0-2.402-.557-2.402-2.476v-.928c0-1.476.836-2.414 2.349-2.414 1.545 0 2.328.949 2.328 2.414v.557c0 .134-.074.227-.201.227h-3.545zm2.804-.784c0-1.166-.455-1.62-1.386-1.62-.91 0-1.418.505-1.418 1.62v.092h2.804v-.092zm-5.957.35c.879.506 1.164.949 1.164 1.558 0 1.052-.793 1.496-1.978 1.496-.392 0-1.154-.031-1.672-.155-.138-.031-.223-.093-.223-.206v-.361c0-.093.085-.155.191-.155h.042a17.35 17.35 0 0 0 1.662.114c.687 0 1.047-.176 1.047-.733 0-.309-.19-.505-.793-.856l-1.069-.619c-.646-.382-1.08-.825-1.08-1.475 0-1.073.826-1.372 1.916-1.372.592 0 1.153.051 1.651.134.137.02.201.093.201.206v.34c0 .124-.075.176-.18.176h-.032a21.101 21.101 0 0 0-1.64-.083c-.593 0-.984.072-.984.599 0 .309.243.505.73.784l1.047.608zm-3.713-1.63c-.519 0-.974.155-1.365.361v4.034a.218.218 0 0 1-.212.217h-1.28a.227.227 0 0 1-.222-.217v-5.488a.21.21 0 0 1 .211-.207h1.259a.21.21 0 0 1 .212.207v.206c.392-.32.921-.495 1.429-.495a.21.21 0 0 1 .211.206v.98c0 .093-.063.196-.158.196h-.085zm-4.412 2.177h-3.375v.021c0 .588.254 1.124 1.09 1.124.666 0 1.608-.051 2.031-.093h.032c.116 0 .201.052.201.165v.785c0 .165-.042.237-.222.278-.677.165-1.249.248-2.169.248-1.281 0-2.656-.661-2.656-2.652v-.722c0-1.661.994-2.713 2.677-2.713 1.735 0 2.613 1.155 2.613 2.713v.599c0 .154-.084.247-.222.247zm-1.449-1.073c0-.763-.36-1.145-.953-1.145-.582 0-.973.392-.973 1.145v.042h1.926v-.042zm-7.195 3.601c-.211 0-.561-.031-.868-.073v1.785a.21.21 0 0 1-.211.207H36.6c-.116 0-.222-.093-.222-.207v-7.232c0-.165.043-.237.328-.299a10.211 10.211 0 0 1 2.254-.268c1.714 0 2.656.97 2.656 2.641v.805c0 1.619-.868 2.641-2.656 2.641zm.942-3.446c0-.733-.191-1.259-.942-1.259-.349 0-.666.021-.868.052v3.219c.254.031.614.062.868.062.751 0 .942-.547.942-1.269v-.805zm-7.258 3.446c-.212 0-.561-.031-.868-.073v1.785a.21.21 0 0 1-.211.207h-1.281c-.116 0-.222-.093-.222-.207v-7.232c0-.165.042-.237.328-.299a10.211 10.211 0 0 1 2.254-.268c1.714 0 2.656.97 2.656 2.641v.805c0 1.619-.868 2.641-2.656 2.641zm.942-3.446c0-.733-.191-1.259-.942-1.259-.349 0-.667.021-.868.052v3.219c.254.031.614.062.868.062.751 0 .942-.547.942-1.269v-.805zm-4.856.918h-3.376v.021c0 .588.254 1.124 1.09 1.124.667 0 1.609-.051 2.032-.093h.032c.116 0 .201.052.201.165v.785c0 .165-.043.237-.223.278-.677.165-1.248.248-2.169.248-1.28 0-2.656-.661-2.656-2.652v-.722c0-1.661.995-2.713 2.677-2.713 1.736 0 2.614 1.155 2.614 2.713v.599c0 .154-.085.247-.222.247zm-1.45-1.073c0-.763-.36-1.145-.952-1.145-.582 0-.974.392-.974 1.145v.042h1.926v-.042zm-7.194 3.601c-.212 0-.561-.031-.868-.073v1.785a.21.21 0 0 1-.212.207h-1.28c-.116 0-.222-.093-.222-.207v-7.232c0-.165.042-.237.328-.299a10.211 10.211 0 0 1 2.254-.268c1.714 0 2.656.97 2.656 2.641v.805c0 1.619-.868 2.641-2.656 2.641zm.941-3.446c0-.733-.19-1.259-.941-1.259-.35 0-.667.021-.868.052v3.219c.254.031.614.062.868.062.751 0 .941-.547.941-1.269v-.805zM55.739 54.173c-.175.482-.379.824-.612 1.026a1.27 1.27 0 0 1-.86.303c-.19 0-.377-.022-.562-.066v-.52c.137.031.291.047.461.047.427 0 .732-.251.914-.751l.228-.61-1.656-4.308h.667l.899 2.443c.198.558.32.961.368 1.208h.03c.032-.133.1-.36.204-.682.103-.322.442-1.311 1.017-2.969h.667l-1.765 4.879zm-4.226-.516c-.267 0-.511-.052-.732-.155a1.385 1.385 0 0 1-.557-.475h-.045l-.131.552h-.446v-6.083h.622v1.478c0 .331-.01.628-.03.891h.03c.29-.427.72-.641 1.289-.641.54 0 .959.192 1.257.576.299.385.448.929.448 1.633 0 .703-.151 1.25-.452 1.639-.301.39-.718.585-1.253.585zm.779-3.479c-.187-.274-.477-.411-.869-.411-.424 0-.73.127-.918.381-.187.254-.281.682-.281 1.285 0 .602.096 1.032.289 1.291.192.26.501.389.925.389.382 0 .667-.145.854-.435.188-.291.281-.709.281-1.253 0-.558-.093-.974-.281-1.247zm-8.206 2.521c.231.261.556.391.976.391.442 0 .879-.096 1.311-.289v.578c-.22.099-.428.17-.624.213a3.363 3.363 0 0 1-.71.065c-.607 0-1.086-.193-1.437-.579-.351-.385-.526-.921-.526-1.606 0-.691.163-1.24.489-1.646.326-.407.764-.61 1.313-.61.515 0 .922.177 1.221.53.3.353.45.819.45 1.397v.411H43.72c.013.503.135.885.366 1.145zm1.796-1.673c0-.409-.087-.723-.262-.94-.175-.218-.425-.327-.749-.327-.33 0-.593.112-.789.337-.196.224-.312.534-.347.93h2.147zm-4.484 1.978h-.034c-.287.435-.717.653-1.289.653-.537 0-.955-.192-1.253-.575-.299-.383-.448-.928-.448-1.634 0-.706.15-1.255.45-1.646.299-.391.717-.586 1.251-.586.557 0 .984.211 1.281.633h.049l-.026-.309-.015-.301v-1.743h.622v6.083h-.506l-.082-.575zm-.034-1.556c0-.607-.097-1.04-.29-1.3-.194-.259-.503-.389-.928-.389-.364 0-.644.148-.837.444-.194.296-.29.713-.29 1.253 0 .547.096.96.288 1.239.192.279.475.418.847.418.424 0 .732-.12.923-.361.191-.241.287-.63.287-1.167v-.137zm-4.627 1.521h-.03c-.205.268-.409.45-.613.545-.203.095-.457.143-.762.143-.407 0-.726-.11-.957-.329-.231-.218-.347-.53-.347-.934 0-.865.663-1.319 1.99-1.36l.696-.024v-.266c0-.336-.069-.584-.207-.744-.139-.161-.361-.241-.665-.241-.343 0-.73.11-1.162.329l-.191-.497c.202-.114.424-.204.665-.269.241-.066.483-.098.725-.098.489 0 .852.113 1.088.34.236.227.354.59.354 1.091v2.924h-.46l-.124-.61zm-.038-1.497l-.621.027c-.495.018-.852.098-1.07.24-.219.142-.328.363-.328.663 0 .235.068.413.204.536.136.122.327.183.572.183.387 0 .691-.11.912-.332.221-.221.331-.532.331-.93v-.387zm-4.409-1.576c0-.422.017-.881.052-1.376h-.03l-1.873 5.059h-.513l-1.859-5.067h-.029c.034.402.052.879.052 1.431v3.636h-.588v-5.716h.959l1.735 4.715h.029l1.75-4.715h.952v5.716h-.637v-3.683zM49.555 16.127c-.428.255-.947.177-1.16-.176-.001-.002-.228-.301-.835-.359-.268-.026-.683-.005-1.267.164-.062-.27-.159-.036-.301-.268a2.475 2.475 0 0 0-.479-.566c.926-.335 1.766-.479 2.506-.408 1.362.131 1.872.913 1.925 1.002.213.352.039.355-.389.611zm-4.077 1.725c-.509.999-1.711 1.397-2.848 1.713-6.309 1.91-7.316 7.822-8.12 9.4l-.242.484c-.28.549-.443.77-.766.429.136-9.976 5.713-13.345 7.665-14.173 1.776-.754 3.657-1.153 4.502.283.228.583.125 1.243-.191 1.864z"/>
    <path fill="#90FFBD" fill-rule="evenodd" d="M50.121 37.184c.731.64 1.016.907.939 1.148-.052.168-.332.168-.332.168-3.475 0-5.329-1.066-5.511-3.172-.279-3.207-1.339-4.37-1.986-4.37a.517.517 0 0 0-.396.186c-.176.202-.256.545-.216.947.157 1.566-.004 1.875-.769 2.745a3.405 3.405 0 0 1-2.526 1.143 2.58 2.58 0 0 1-.919-.158c-.21-.081-.335-.206-.372-.369-.085-.375.33-.828.855-1.401.767-.838 1.562-.903 1.061-1.852-.529-1.001-.832-2.382-.832-3.79 0-3.167 2.774-5.742 6.182-5.742 3.402 0 6.176 2.57 6.183 5.729l.001 1.756h-5.289c.631 3.554 3.877 6.988 3.927 7.032zm-7.446-14.651a6.849 6.849 0 0 0-2.049 1.264.146.146 0 0 1-.18.011 3.733 3.733 0 0 0-1.313-.605.149.149 0 0 1-.108-.097.16.16 0 0 1 .024-.145 6.266 6.266 0 0 1 3.474-2.251.141.141 0 0 1 .13.034.158.158 0 0 1 .048.131c-.052.455-.03.957.066 1.489a.152.152 0 0 1-.092.169z"/>
</svg>
