<svg xmlns="http://www.w3.org/2000/svg" width="20" height="16">
    <path fill="#90FFBD" fill-rule="evenodd" d="M19.448.296a8.347 8.347 0 0 1-2.606.98A4.124 4.124 0 0 0 13.847 0c-2.266 0-4.103 1.809-4.103 4.04 0 .316.036.624.106.92A11.707 11.707 0 0 1 1.393.738a3.972 3.972 0 0 0-.555 2.031c0 1.403.726 2.639 1.825 3.363a4.158 4.158 0 0 1-1.858-.508v.051c0 1.957 1.415 3.589 3.291 3.962a4.22 4.22 0 0 1-1.081.142c-.265 0-.521-.027-.773-.074.522 1.605 2.037 2.773 3.832 2.807a8.313 8.313 0 0 1-5.095 1.729c-.332 0-.658-.02-.979-.055A11.754 11.754 0 0 0 6.289 16c7.547 0 11.674-6.157 11.674-11.495l-.013-.524A8.17 8.17 0 0 0 20 1.893a8.29 8.29 0 0 1-2.356.636A4.066 4.066 0 0 0 19.448.296z"/>
</svg>
