<svg width="300" height="110" viewBox="0 0 300 110" fill="none" xmlns="http://www.w3.org/2000/svg">
<mask id="mask0" mask-type="alpha" maskUnits="userSpaceOnUse" x="0" y="0" width="300" height="110">
<rect width="300" height="110" rx="10" fill="#0FB3FF"/>
</mask>
<g mask="url(#mask0)">
<rect width="300" height="110" fill="#0FB3FF"/>
<path d="M23.0322 36.127H19.833V45H18.5273V36.127H15.335V35.0469H23.0322V36.127ZM27.3662 38.7383C27.1748 38.7064 26.9674 38.6904 26.7441 38.6904C25.9147 38.6904 25.3519 39.0436 25.0557 39.75V45H23.791V37.6035H25.0215L25.042 38.458C25.4567 37.7972 26.0446 37.4668 26.8057 37.4668C27.0518 37.4668 27.2386 37.4987 27.3662 37.5625V38.7383ZM32.8281 45C32.7552 44.8542 32.696 44.5944 32.6504 44.2207C32.0625 44.8314 31.3607 45.1367 30.5449 45.1367C29.8158 45.1367 29.2165 44.9316 28.7471 44.5215C28.2822 44.1068 28.0498 43.5827 28.0498 42.9492C28.0498 42.179 28.3415 41.582 28.9248 41.1582C29.5127 40.7298 30.3376 40.5156 31.3994 40.5156H32.6299V39.9346C32.6299 39.4925 32.4977 39.1416 32.2334 38.8818C31.9691 38.6175 31.5794 38.4854 31.0645 38.4854C30.6133 38.4854 30.235 38.5993 29.9297 38.8271C29.6243 39.055 29.4717 39.3307 29.4717 39.6543H28.2002C28.2002 39.2852 28.3301 38.9297 28.5898 38.5879C28.8542 38.2415 29.2096 37.9681 29.6562 37.7676C30.1074 37.5671 30.6019 37.4668 31.1396 37.4668C31.9919 37.4668 32.6595 37.681 33.1426 38.1094C33.6257 38.5332 33.8763 39.1188 33.8945 39.8662V43.2705C33.8945 43.9495 33.9811 44.4896 34.1543 44.8906V45H32.8281ZM30.7295 44.0361C31.126 44.0361 31.502 43.9336 31.8574 43.7285C32.2129 43.5234 32.4704 43.2568 32.6299 42.9287V41.4111H31.6387C30.0892 41.4111 29.3145 41.8646 29.3145 42.7715C29.3145 43.168 29.4466 43.4779 29.7109 43.7012C29.9753 43.9245 30.3148 44.0361 30.7295 44.0361ZM35.5693 41.2402C35.5693 40.1055 35.8382 39.194 36.376 38.5059C36.9137 37.8132 37.6178 37.4668 38.4883 37.4668C39.3542 37.4668 40.04 37.763 40.5459 38.3555V34.5H41.8105V45H40.6484L40.5869 44.207C40.0811 44.8268 39.377 45.1367 38.4746 45.1367C37.6178 45.1367 36.9183 44.7858 36.376 44.084C35.8382 43.3822 35.5693 42.4661 35.5693 41.3359V41.2402ZM36.834 41.3838C36.834 42.2223 37.0072 42.8786 37.3535 43.3525C37.6999 43.8265 38.1784 44.0635 38.7891 44.0635C39.5911 44.0635 40.1768 43.7035 40.5459 42.9834V39.5859C40.1676 38.8887 39.5866 38.54 38.8027 38.54C38.1829 38.54 37.6999 38.7793 37.3535 39.2578C37.0072 39.7363 36.834 40.445 36.834 41.3838ZM46.8486 45.1367C45.846 45.1367 45.0303 44.8086 44.4014 44.1523C43.7725 43.4915 43.458 42.6097 43.458 41.5068V41.2744C43.458 40.5407 43.597 39.8867 43.875 39.3125C44.1576 38.7337 44.5495 38.2826 45.0508 37.959C45.5566 37.6309 46.1035 37.4668 46.6914 37.4668C47.653 37.4668 48.4004 37.7835 48.9336 38.417C49.4668 39.0505 49.7334 39.9574 49.7334 41.1377V41.6641H44.7227C44.7409 42.3932 44.9528 42.9834 45.3584 43.4346C45.7686 43.8812 46.2881 44.1045 46.917 44.1045C47.3636 44.1045 47.7419 44.0133 48.0518 43.8311C48.3617 43.6488 48.6328 43.4072 48.8652 43.1064L49.6377 43.708C49.0179 44.6605 48.0882 45.1367 46.8486 45.1367ZM46.6914 38.5059C46.181 38.5059 45.7526 38.6927 45.4062 39.0664C45.0599 39.4355 44.8457 39.9551 44.7637 40.625H48.4688V40.5293C48.4323 39.8867 48.2591 39.39 47.9492 39.0391C47.6393 38.6836 47.2201 38.5059 46.6914 38.5059ZM54.3408 41.2334C54.3408 40.5088 54.4821 39.8571 54.7646 39.2783C55.0518 38.6995 55.4482 38.2529 55.9541 37.9385C56.4645 37.624 57.0456 37.4668 57.6973 37.4668C58.7044 37.4668 59.5179 37.8154 60.1377 38.5127C60.762 39.21 61.0742 40.1374 61.0742 41.2949V41.3838C61.0742 42.1038 60.9352 42.751 60.6572 43.3252C60.3838 43.8949 59.9896 44.3392 59.4746 44.6582C58.9642 44.9772 58.3763 45.1367 57.7109 45.1367C56.7083 45.1367 55.8949 44.7881 55.2705 44.0908C54.6507 43.3936 54.3408 42.4707 54.3408 41.3223V41.2334ZM55.6123 41.3838C55.6123 42.2041 55.8014 42.8626 56.1797 43.3594C56.5625 43.8561 57.0729 44.1045 57.7109 44.1045C58.3535 44.1045 58.8639 43.8538 59.2422 43.3525C59.6204 42.8467 59.8096 42.1403 59.8096 41.2334C59.8096 40.4222 59.6159 39.766 59.2285 39.2646C58.8457 38.7588 58.3353 38.5059 57.6973 38.5059C57.0729 38.5059 56.5693 38.7542 56.1865 39.251C55.8037 39.7477 55.6123 40.4587 55.6123 41.3838ZM63.8564 37.6035L63.8975 38.5332C64.4626 37.8223 65.2008 37.4668 66.1123 37.4668C67.6755 37.4668 68.4639 38.3486 68.4775 40.1123V45H67.2129V40.1055C67.2083 39.5723 67.0853 39.1781 66.8438 38.9229C66.6068 38.6676 66.2354 38.54 65.7295 38.54C65.3193 38.54 64.9593 38.6494 64.6494 38.8682C64.3395 39.0869 64.098 39.374 63.9248 39.7295V45H62.6602V37.6035H63.8564Z" fill="white"/>
<path d="M22.04 70H19.5V60.209L16.4678 61.1494V59.084L21.7676 57.1855H22.04V70ZM28.9922 70H26.4434V60.4902H28.9922V70ZM26.2939 58.0293C26.2939 57.6484 26.4199 57.335 26.6719 57.0889C26.9297 56.8428 27.2783 56.7197 27.7178 56.7197C28.1514 56.7197 28.4971 56.8428 28.7549 57.0889C29.0127 57.335 29.1416 57.6484 29.1416 58.0293C29.1416 58.416 29.0098 58.7324 28.7461 58.9785C28.4883 59.2246 28.1455 59.3477 27.7178 59.3477C27.29 59.3477 26.9443 59.2246 26.6807 58.9785C26.4229 58.7324 26.2939 58.416 26.2939 58.0293ZM33.4307 60.4902L33.5098 61.5889C34.1895 60.7393 35.1006 60.3145 36.2432 60.3145C37.251 60.3145 38.001 60.6104 38.4932 61.2021C38.9854 61.7939 39.2373 62.6787 39.249 63.8564V70H36.709V63.918C36.709 63.3789 36.5918 62.9893 36.3574 62.749C36.123 62.5029 35.7334 62.3799 35.1885 62.3799C34.4736 62.3799 33.9375 62.6846 33.5801 63.2939V70H31.04V60.4902H33.4307ZM45.1377 68.1279C45.6064 68.1279 45.9873 67.999 46.2803 67.7412C46.5732 67.4834 46.7256 67.1406 46.7373 66.7129H49.1191C49.1133 67.3574 48.9375 67.9492 48.5918 68.4883C48.2461 69.0215 47.7715 69.4375 47.168 69.7363C46.5703 70.0293 45.9082 70.1758 45.1816 70.1758C43.8223 70.1758 42.75 69.7451 41.9648 68.8838C41.1797 68.0166 40.7871 66.8213 40.7871 65.2979V65.1309C40.7871 63.666 41.1768 62.4971 41.9561 61.624C42.7354 60.751 43.8047 60.3145 45.1641 60.3145C46.3535 60.3145 47.3057 60.6543 48.0205 61.334C48.7412 62.0078 49.1074 62.9072 49.1191 64.0322H46.7373C46.7256 63.54 46.5732 63.1416 46.2803 62.8369C45.9873 62.5264 45.6006 62.3711 45.1201 62.3711C44.5283 62.3711 44.0801 62.5879 43.7754 63.0215C43.4766 63.4492 43.3271 64.1465 43.3271 65.1133V65.377C43.3271 66.3555 43.4766 67.0586 43.7754 67.4863C44.0742 67.9141 44.5283 68.1279 45.1377 68.1279ZM53.0479 61.5273C53.7217 60.7188 54.5684 60.3145 55.5879 60.3145C57.6504 60.3145 58.6963 61.5127 58.7256 63.9092V70H56.1855V63.9795C56.1855 63.4346 56.0684 63.0332 55.834 62.7754C55.5996 62.5117 55.21 62.3799 54.665 62.3799C53.9209 62.3799 53.3818 62.667 53.0479 63.2412V70H50.5078V56.5H53.0479V61.5273ZM60.7734 68.752C60.7734 68.3477 60.9082 68.0195 61.1777 67.7676C61.4531 67.5156 61.7959 67.3896 62.2061 67.3896C62.6221 67.3896 62.9648 67.5156 63.2344 67.7676C63.5098 68.0195 63.6475 68.3477 63.6475 68.752C63.6475 69.1504 63.5127 69.4756 63.2432 69.7275C62.9736 69.9736 62.6279 70.0967 62.2061 70.0967C61.79 70.0967 61.4473 69.9736 61.1777 69.7275C60.9082 69.4756 60.7734 69.1504 60.7734 68.752Z" fill="white"/>
<path d="M70.0811 70.1758C68.792 70.1758 67.7432 69.7539 66.9346 68.9102C66.126 68.0605 65.7217 66.9268 65.7217 65.5088V65.21C65.7217 64.2666 65.9004 63.4258 66.2578 62.6875C66.6211 61.9434 67.125 61.3633 67.7695 60.9473C68.4199 60.5254 69.123 60.3145 69.8789 60.3145C71.1152 60.3145 72.0762 60.7217 72.7617 61.5361C73.4473 62.3506 73.79 63.5166 73.79 65.0342V65.7109H67.3477C67.3711 66.6484 67.6436 67.4072 68.165 67.9873C68.6924 68.5615 69.3604 68.8486 70.1689 68.8486C70.7432 68.8486 71.2295 68.7314 71.6279 68.4971C72.0264 68.2627 72.375 67.9521 72.6738 67.5654L73.667 68.3389C72.8701 69.5635 71.6748 70.1758 70.0811 70.1758ZM69.8789 61.6504C69.2227 61.6504 68.6719 61.8906 68.2266 62.3711C67.7812 62.8457 67.5059 63.5137 67.4004 64.375H72.1641V64.252C72.1172 63.4258 71.8945 62.7871 71.4961 62.3359C71.0977 61.8789 70.5586 61.6504 69.8789 61.6504ZM78.8701 63.9619L80.9795 60.4902H82.8779L79.7666 65.1924L82.9746 70H81.0938L78.8965 66.4404L76.6992 70H74.8096L78.0176 65.1924L74.9062 60.4902H76.7871L78.8701 63.9619ZM88.248 68.8486C88.8281 68.8486 89.335 68.6729 89.7686 68.3213C90.2021 67.9697 90.4424 67.5303 90.4893 67.0029H92.0273C91.998 67.5479 91.8105 68.0664 91.4648 68.5586C91.1191 69.0508 90.6562 69.4434 90.0762 69.7363C89.502 70.0293 88.8926 70.1758 88.248 70.1758C86.9531 70.1758 85.9219 69.7451 85.1543 68.8838C84.3926 68.0166 84.0117 66.833 84.0117 65.333V65.0605C84.0117 64.1348 84.1816 63.3115 84.5215 62.5908C84.8613 61.8701 85.3477 61.3105 85.9805 60.9121C86.6191 60.5137 87.3721 60.3145 88.2393 60.3145C89.3057 60.3145 90.1904 60.6338 90.8936 61.2725C91.6025 61.9111 91.9805 62.7402 92.0273 63.7598H90.4893C90.4424 63.1445 90.208 62.6406 89.7861 62.248C89.3701 61.8496 88.8545 61.6504 88.2393 61.6504C87.4131 61.6504 86.7715 61.9492 86.3145 62.5469C85.8633 63.1387 85.6377 63.9971 85.6377 65.1221V65.4297C85.6377 66.5254 85.8633 67.3691 86.3145 67.9609C86.7656 68.5527 87.4102 68.8486 88.248 68.8486ZM95.4814 61.6416C96.2021 60.7568 97.1396 60.3145 98.2939 60.3145C100.304 60.3145 101.317 61.4482 101.335 63.7158V70H99.709V63.707C99.7031 63.0215 99.5449 62.5146 99.2344 62.1865C98.9297 61.8584 98.4521 61.6943 97.8018 61.6943C97.2744 61.6943 96.8115 61.835 96.4131 62.1162C96.0146 62.3975 95.7041 62.7666 95.4814 63.2236V70H93.8555V56.5H95.4814V61.6416ZM109.641 70C109.547 69.8125 109.471 69.4785 109.412 68.998C108.656 69.7832 107.754 70.1758 106.705 70.1758C105.768 70.1758 104.997 69.9121 104.394 69.3848C103.796 68.8516 103.497 68.1777 103.497 67.3633C103.497 66.373 103.872 65.6055 104.622 65.0605C105.378 64.5098 106.438 64.2344 107.804 64.2344H109.386V63.4873C109.386 62.9189 109.216 62.4678 108.876 62.1338C108.536 61.7939 108.035 61.624 107.373 61.624C106.793 61.624 106.307 61.7705 105.914 62.0635C105.521 62.3564 105.325 62.7109 105.325 63.127H103.69C103.69 62.6523 103.857 62.1953 104.191 61.7559C104.531 61.3105 104.988 60.959 105.562 60.7012C106.143 60.4434 106.778 60.3145 107.47 60.3145C108.565 60.3145 109.424 60.5898 110.045 61.1406C110.666 61.6855 110.988 62.4385 111.012 63.3994V67.7764C111.012 68.6494 111.123 69.3438 111.346 69.8594V70H109.641ZM106.942 68.7607C107.452 68.7607 107.936 68.6289 108.393 68.3652C108.85 68.1016 109.181 67.7588 109.386 67.3369V65.3857H108.111C106.119 65.3857 105.123 65.9688 105.123 67.1348C105.123 67.6445 105.293 68.043 105.633 68.3301C105.973 68.6172 106.409 68.7607 106.942 68.7607ZM115.099 60.4902L115.151 61.6855C115.878 60.7715 116.827 60.3145 117.999 60.3145C120.009 60.3145 121.022 61.4482 121.04 63.7158V70H119.414V63.707C119.408 63.0215 119.25 62.5146 118.939 62.1865C118.635 61.8584 118.157 61.6943 117.507 61.6943C116.979 61.6943 116.517 61.835 116.118 62.1162C115.72 62.3975 115.409 62.7666 115.187 63.2236V70H113.561V60.4902H115.099ZM123.105 65.166C123.105 63.6836 123.448 62.5059 124.134 61.6328C124.819 60.7539 125.728 60.3145 126.858 60.3145C128.019 60.3145 128.924 60.7246 129.574 61.5449L129.653 60.4902H131.139V69.7715C131.139 71.002 130.772 71.9717 130.04 72.6807C129.313 73.3896 128.335 73.7441 127.104 73.7441C126.419 73.7441 125.748 73.5977 125.092 73.3047C124.436 73.0117 123.935 72.6104 123.589 72.1006L124.433 71.125C125.13 71.9863 125.982 72.417 126.99 72.417C127.781 72.417 128.396 72.1943 128.836 71.749C129.281 71.3037 129.504 70.6768 129.504 69.8682V69.0508C128.854 69.8008 127.966 70.1758 126.841 70.1758C125.728 70.1758 124.825 69.7275 124.134 68.8311C123.448 67.9346 123.105 66.7129 123.105 65.166ZM124.74 65.3506C124.74 66.4229 124.96 67.2666 125.399 67.8818C125.839 68.4912 126.454 68.7959 127.245 68.7959C128.271 68.7959 129.023 68.3301 129.504 67.3984V63.0566C129.006 62.1484 128.259 61.6943 127.263 61.6943C126.472 61.6943 125.854 62.002 125.408 62.6172C124.963 63.2324 124.74 64.1436 124.74 65.3506ZM137.546 70.1758C136.257 70.1758 135.208 69.7539 134.399 68.9102C133.591 68.0605 133.187 66.9268 133.187 65.5088V65.21C133.187 64.2666 133.365 63.4258 133.723 62.6875C134.086 61.9434 134.59 61.3633 135.234 60.9473C135.885 60.5254 136.588 60.3145 137.344 60.3145C138.58 60.3145 139.541 60.7217 140.227 61.5361C140.912 62.3506 141.255 63.5166 141.255 65.0342V65.7109H134.812C134.836 66.6484 135.108 67.4072 135.63 67.9873C136.157 68.5615 136.825 68.8486 137.634 68.8486C138.208 68.8486 138.694 68.7314 139.093 68.4971C139.491 68.2627 139.84 67.9521 140.139 67.5654L141.132 68.3389C140.335 69.5635 139.14 70.1758 137.546 70.1758ZM137.344 61.6504C136.688 61.6504 136.137 61.8906 135.691 62.3711C135.246 62.8457 134.971 63.5137 134.865 64.375H139.629V64.252C139.582 63.4258 139.359 62.7871 138.961 62.3359C138.562 61.8789 138.023 61.6504 137.344 61.6504Z" fill="#083751"/>
<path d="M193.982 178.2C185.357 178.2 177.763 176.059 171.412 171.777C162.801 166.014 157.268 156.789 155.411 145.131C153.665 134.179 155.218 121.247 159.892 107.733C164.565 94.2189 172.28 80.4338 182.208 67.7656C196.895 49.0345 215.145 34.2859 233.591 26.2354C243.484 21.9282 252.894 19.7585 261.577 19.7585C270.202 19.7585 277.795 21.8996 284.146 26.1818C290.419 30.382 295.103 36.4948 297.88 44.0493C298.409 43.0629 298.849 42.0311 299.194 40.9661L302.05 31.7665L303.703 41.2552C307.112 60.857 301.757 78.6781 295.795 91.307C297.354 90.3758 298.816 89.2903 300.158 88.0668L307.177 81.4758L303.931 90.5398C298.669 105.231 289.816 118.56 277.581 130.236C280.316 129.986 283.122 129.497 285.335 128.58L294.235 124.897L287.988 132.227C272.886 149.955 252.005 159.087 237.029 163.63C232.225 166.707 227.189 169.408 221.967 171.709C212.075 175.998 202.661 178.2 193.982 178.2ZM261.548 35.071C255.036 35.071 247.7 36.8303 239.742 40.3024C223.581 47.3538 207.444 60.4716 194.3 77.2328C176.785 99.5681 167.692 124.673 170.57 142.718C171.755 150.166 174.914 155.654 179.955 159.03C183.75 161.567 188.477 162.856 194.01 162.856C200.522 162.856 207.858 161.096 215.816 157.624C231.978 150.573 248.114 137.455 261.259 120.694C278.773 98.3548 287.866 73.2647 284.989 55.208C283.804 47.7606 280.644 42.2722 275.603 38.8964C271.808 36.3592 267.082 35.071 261.548 35.071Z" fill="#56A4CB"/>
<path d="M288.894 72.394C293.785 65.8386 295.617 57.1743 296.627 51.4433C292.761 56.2072 289.787 58.2984 289.787 58.2984C290.233 62.6234 290.501 66.8628 288.894 72.394Z" fill="#277DAD"/>
<path d="M224.42 36.3878C265.154 10.5982 290.99 38.2541 291.394 45.0949C289.741 34.3002 282.112 26.7171 273.065 22.4528C265.207 18.3882 241.592 24.0407 241.592 24.0407L224.42 36.3878Z" fill="#DDEDF5"/>
<path d="M156.089 130.917C164.326 102.591 192.504 48.1281 246.186 24.2192C237.665 20.6114 201.279 40.3559 182.215 67.7549C158.767 101.477 158.767 109.863 156.089 130.917Z" fill="#DDEDF5"/>
<path d="M273.062 103.857C273.062 103.857 282.122 100.806 287.699 96.5991C291.983 89.4371 299.244 72.2548 299.244 57.2278C288.77 81.6649 281.394 84.5019 281.394 84.5019C277.506 96.2422 276.039 97.9908 273.062 103.857Z" fill="#277DAD"/>
<path d="M278.773 135.496C261.994 148.546 250.545 153.774 235.737 158.691L226.241 163.926L224.02 154.766C224.02 154.766 259.81 135.81 271.708 106.116C277.47 108.853 292.946 101.538 296.627 96.2423C289.487 109.089 265.211 135.26 265.211 135.26L278.773 135.496Z" fill="#277DAD"/>
<path d="M261.577 22.0602C269.645 22.0602 276.863 24.0657 282.854 28.0767C290.019 32.8728 294.906 40.2667 297.134 49.5841C298.919 47.0862 300.583 44.267 301.418 41.6192C305.024 62.3486 298.676 81.1118 291.551 94.5687C291.29 95.2146 291.022 95.864 290.747 96.5099C294.674 94.7257 298.855 92.4383 301.747 89.7298C295.153 108.143 283.539 122.239 271.316 132.755H272.133C276.292 132.755 282.101 132.398 286.224 130.693C271.78 147.643 251.952 156.689 236.051 161.482C231.267 164.564 226.247 167.266 221.039 169.561C211.4 173.764 202.254 175.866 193.989 175.866C185.921 175.866 178.702 173.861 172.712 169.85C164.65 164.454 159.463 155.779 157.717 144.767C156.032 134.19 157.55 121.646 162.105 108.493C166.675 95.2502 174.268 81.665 184.043 69.2002C198.494 50.7653 216.427 36.2664 234.527 28.3658C244.166 24.1621 253.312 22.0602 261.577 22.0602ZM194.01 165.175C200.758 165.175 208.462 163.362 216.744 159.747C233.252 152.546 249.706 139.186 263.087 122.125C280.983 99.2862 290.255 73.5181 287.281 54.8441C285.988 46.7329 282.493 40.7199 276.896 36.9694C272.687 34.1539 267.489 32.7515 261.544 32.7515C254.794 32.7515 247.093 34.5643 238.811 38.1756C222.303 45.3804 205.845 58.7409 192.468 75.8019C174.572 98.6403 165.3 124.408 168.274 143.082C169.566 151.194 173.061 157.207 178.659 160.957C182.865 163.773 188.066 165.175 194.01 165.175ZM261.577 17.439C252.573 17.439 242.848 19.6908 232.659 24.1335C213.867 32.3411 195.299 47.3288 180.38 66.3561C170.302 79.2027 162.458 93.2697 157.707 106.976C152.901 120.847 151.324 134.168 153.109 145.495C155.072 157.817 160.963 167.573 170.109 173.686C176.849 178.2 184.878 180.488 193.971 180.488C202.971 180.488 212.699 178.236 222.888 173.793C228.124 171.49 233.176 168.79 238 165.717C247.035 162.992 255.744 159.282 263.969 154.655C282.083 144.349 288.759 137.062 301.479 120.815L284.639 126.3C301.586 107.883 305.863 96.7169 311.293 75.627L301.561 83.5277C312.332 58.4162 305.192 31.0279 302.907 25.4682C301.415 29.8681 298.98 36.0488 297.698 37.9187C294.816 32.4047 290.602 27.6971 285.439 24.2228C278.698 19.7086 270.669 17.4212 261.577 17.4212V17.439ZM194.01 160.536C188.944 160.536 184.65 159.38 181.247 157.103C176.764 154.098 173.943 149.138 172.861 142.354C170.084 124.912 178.998 100.51 196.124 78.6638C209.037 62.1988 224.855 49.3307 240.671 42.4293C248.332 39.0856 255.358 37.3905 261.548 37.3905C266.614 37.3905 270.905 38.5467 274.311 40.8234C278.795 43.8281 281.615 48.7883 282.697 55.5721C285.474 73.0149 276.56 97.4163 259.435 119.263C246.522 135.735 230.703 148.582 214.888 155.497C207.223 158.841 200.201 160.536 194.01 160.536Z" fill="#083751"/>
<path d="M194.01 160.536C188.945 160.536 184.65 159.38 181.248 157.103C176.764 154.098 173.943 149.138 172.862 142.354C170.084 124.912 178.998 100.51 196.124 78.6638C209.037 62.1988 224.855 49.3307 240.671 42.4292C248.332 39.0856 255.358 37.3905 261.548 37.3905C266.614 37.3905 270.905 38.5467 274.311 40.8234C278.795 43.8281 281.615 48.7883 282.697 55.572C285.474 73.0149 276.56 97.4163 259.435 119.263C246.522 135.735 230.703 148.582 214.888 155.497C207.223 158.841 200.201 160.536 194.01 160.536Z" fill="#083751"/>
<path d="M170.52 -4.20036C170.309 -1.54183 170.491 11.187 175.296 13.3531C171.965 5.5024 175.503 -9.12847 192.204 -9.19984C189.148 -6.92313 186.806 -3.18691 185.778 -0.692525C184.673 0.511902 183.695 1.82735 182.861 3.23283C184.064 2.51913 187.97 -4.11115 202.625 -4.15754C206.516 -4.15754 210.743 -3.73289 214.192 -1.77021C208.265 -3.23687 201.954 0.014039 197.034 3.32204C200.501 2.20867 205.545 -1.12788 212.642 0.260265C217.412 1.19164 219.372 5.58447 223.31 7.85047C226.523 9.70253 231.085 9.56335 233.188 6.10904C233.712 5.25125 233.974 4.25891 233.941 3.25424C234.843 4.20697 235.631 5.26074 236.29 6.39452C237.752 8.92544 238.363 11.8588 238.032 14.7627C234.559 14.4308 231.139 15.6298 227.654 15.2266C224.28 14.778 221.092 13.4212 218.429 11.3012C220.324 14.1381 223.185 16.191 226.48 17.0786C230.671 18.2027 234.751 16.6326 238.939 17.3748C243.719 18.217 249.742 21.3323 255.197 17.7067C256.163 17.0489 256.974 16.1893 257.575 15.1873C258.445 17.5832 258.513 20.1971 257.767 22.6348C257.382 24.0055 256.663 25.2596 255.675 26.2854C254.779 27.1739 253.683 27.4772 252.655 28.091C249.199 26.6636 245.333 26.1819 241.588 25.9499C244.955 27.0205 248.403 28.091 251.584 29.6148C254.765 31.1385 256.914 33.5401 259.142 36.2165C260.995 38.4432 263.155 40.4702 266.057 41.1589C268.051 41.6334 270.138 41.5319 272.076 40.8663C272.594 43.7746 269.898 48.5171 266.139 49.1452C267.958 50.305 269.917 51.2295 271.969 51.8965C270.541 53.1812 267.132 54.1411 264.94 54.2553C270.209 57.0173 272.862 64.3756 272.74 70.3492C271.894 68.5257 270.923 66.4239 268.717 64.8323C269.338 67.3838 269.224 70.4991 268.752 73.3967C267.71 72.4047 263.754 67.8227 262.069 65.6067C262.887 63.0552 262.744 61.2959 262.18 58.6981C261.466 62.9803 258.399 67.8941 256.825 69.8639C257.539 67.1982 257.26 64.3292 256.825 61.6564C256.292 58.6439 255.413 55.703 254.205 52.8921C251.602 46.5438 251.602 46.5438 249.353 41.0161C248.05 46.294 246.932 48.7562 245.201 50.8938C245.29 49.203 245.175 47.5076 244.858 45.8443C244.737 45.152 243.655 39.7386 238.589 32.4696C239.028 35.8382 240.374 39.8385 238.778 43.6069C238.675 40.7806 236.808 32.598 231.149 29.3329C232.734 32.0592 234.127 40.5986 232.22 42.7897C232.402 38.0793 229.122 33.7364 225.544 30.8852C222.895 28.7726 208.208 20.5793 208.23 20.615C208.251 20.6507 210.954 32.4268 205.045 33.3581C206.852 29.2865 202.311 20.7185 197.191 19.1412C197.791 16.2686 197.63 12.8143 196.638 10.22C194.096 12.9784 187.656 13.0962 184.168 16.1223C182.668 17.4141 181.073 19.3839 180.426 21.6713L178.491 24.3405C178.451 24.111 178.366 23.8915 178.242 23.6946L168.606 14.5378C166.411 10.3627 165.811 0.285245 170.52 -4.20036Z" fill="#E61C3F"/>
<path d="M159.577 9.11729L165.047 14.6342C164.75 15.1659 164.354 15.7583 163.769 15.8939C164.111 15.9733 164.468 15.9525 164.799 15.8342C165.129 15.7159 165.418 15.5049 165.632 15.2266L168.217 17.8351C167.692 19.0163 166.828 20.4651 165.486 20.6899C167.203 21.1824 168.517 20.0904 169.127 18.7558L172.419 22.0745C171.983 23.6411 171.03 25.643 168.285 25.9999C171.266 26.7136 172.954 24.99 173.508 23.1665L175.828 25.5074C176.589 28.0054 172.305 30.9101 169.759 30.2428L159.577 9.11729Z" fill="white"/>
<path d="M276.039 92.0457C271.603 101.617 266.058 110.635 259.517 118.913C257.075 122.039 254.537 125.029 251.902 127.884C252.766 121.354 250.881 114.495 246.7 111.262C250.577 119.548 249.556 126.528 246.297 131.806C241.431 139.625 232.335 142.99 226.858 142.872C222.708 142.746 218.656 141.576 215.077 139.471C215.077 139.471 199.876 135.735 198.88 139.178C197.884 142.622 203.142 151.436 203.142 151.436C203.142 151.436 206.773 151.265 207.098 153.877C208.551 152.674 210.3 151.884 212.164 151.59C213.607 152.549 214.685 153.966 215.227 155.611C216.212 158.691 215.159 162.106 214.599 164.565C214.485 165.02 214.397 165.481 214.334 165.946C214.26 166.503 214.283 167.07 214.402 167.619C214.563 168.323 214.868 168.985 215.298 169.564C214.068 169.327 212.852 169.02 211.657 168.644C210.36 168.24 209.096 167.736 207.876 167.138C205.971 166.251 204.281 164.963 202.921 163.362C197.334 163.744 195.424 164.939 193.714 161.824C193.201 160.82 192.781 159.771 192.457 158.691C190.237 151.818 185.239 144.831 183.197 141.99C181.155 139.15 183.739 133.176 188.627 131.028C193.514 128.88 213.385 123.791 216.323 119.869C219.261 115.948 217.922 107.594 232.199 102.273C228.118 100.949 216.316 106.819 213.385 117.204C207.848 120.829 193.693 124.94 189.841 126.082C183.475 127.966 179.902 132.57 178.87 135.482C175.725 136.595 170.595 138.368 170.548 140.834C170.495 143.593 172.458 147.582 172.333 153.299C172.333 154.198 173.24 155.704 174.5 157.324C175.293 158.348 176.221 159.419 177.124 160.411C176.912 162.334 176.011 164.115 174.586 165.425C173.566 166.381 172.442 167.219 171.234 167.923C170.038 168.658 168.913 169.261 168.142 169.839C167.474 170.344 166.947 171.011 166.61 171.777C166.036 169.849 165.649 167.87 165.454 165.867C162.38 161.667 161.259 160.515 160.691 158.73C160.647 158.57 160.617 158.407 160.602 158.241C160.374 156.143 160.916 149.866 161.259 146.237C161.684 146.187 162.58 146.794 164.301 147.764L164.658 147.978L164.197 147.265C161.698 143.432 158.867 139.207 160.113 135.371C160.784 133.308 162.094 132.159 164.169 130.921C164.18 130.911 164.193 130.902 164.208 130.896C165.004 130.414 165.918 129.918 166.953 129.347C170.687 127.281 185.731 122.421 187.688 118.438C188.801 116.226 190.043 114.081 191.408 112.015C191.728 114.921 192.358 117.785 193.286 120.558C193.064 100.574 200.326 88.0561 203.185 83.8988C203.515 87.8885 203.521 91.8983 203.203 95.889C207.194 92.1456 207.448 75.6484 202.361 62.2701C201.937 61.1544 201.474 60.0636 200.972 58.9978C200.436 57.8594 199.858 56.7568 199.237 55.7005C200.246 53.5115 200.687 51.1035 200.519 48.6991C200.441 47.563 200.243 46.4384 199.926 45.3447C199.388 43.3691 198.428 41.5333 197.113 39.9634C197.677 42.4935 198.184 44.6774 198.244 46.8435C198.295 48.3603 198.087 49.8746 197.63 51.3219C197.502 51.7252 197.352 52.132 197.181 52.5495C197.209 52.2604 197.231 51.975 197.238 51.6895C197.28 50.4799 197.16 49.2702 196.881 48.0924C196.718 47.4027 196.503 46.7263 196.238 46.0691C196.199 45.9763 196.056 46.0441 196.077 46.1369C196.261 46.9255 196.37 47.7295 196.402 48.5385C196.46 50.0167 196.301 51.4954 195.931 52.9278C195.773 53.5654 195.581 54.1944 195.356 54.8119C195.025 55.7228 194.647 56.6161 194.225 57.4883C191.415 60.9355 186.938 62.0167 184.635 66.1098C184.421 66.0206 184.178 65.9207 183.921 65.8172C183.054 65.4773 182.163 65.2029 181.255 64.9964C179.637 64.6396 177.831 64.5111 176.342 65.1106C175.573 65.3507 174.842 65.7004 174.172 66.1491C173.561 66.5439 173.05 67.0753 172.679 67.7014C173.554 66.72 176.249 65.9171 178.391 65.9492C178.984 66.0094 179.551 66.2248 180.034 66.5737C180.737 67.0867 181.28 67.7899 181.597 68.6006C181.597 68.6577 181.569 68.6934 181.565 68.7148C181.581 68.6884 181.596 68.661 181.608 68.6327V68.6613C182.097 69.8496 182.376 71.5625 182.165 74.0319C181.562 76.4977 180.987 78.7031 180.152 79.7094C178.559 81.6506 173.336 84.7624 170.53 85.3084C170.319 85.359 170.104 85.3959 169.888 85.419C169.142 85.4612 168.396 85.3656 167.685 85.1371C167.439 85.0693 167.189 84.9836 166.939 84.8873C167.422 84.5056 167.923 84.1483 168.442 83.8167C168.991 83.4624 169.56 83.1418 170.148 82.8568C170.836 82.5261 171.485 82.2073 172.094 81.9004C176.524 79.7022 178.877 78.2392 179.612 76.8831C180.287 75.6377 179.78 73.907 178.727 72.4046C178.25 71.71 177.678 71.0854 177.028 70.549C176.716 70.2908 176.383 70.0592 176.032 69.8567C176.538 69.7197 177.069 69.6977 177.585 69.7925C178.048 69.8705 178.507 69.9729 178.959 70.0994C178.691 69.7996 177.331 69.4713 176.938 69.243C175.653 68.4864 174.511 68.8112 173.636 69.7961C172.494 71.0807 170.927 75.6341 168.256 78.753C166.435 80.8941 162.99 81.6756 160.984 81.9647C158.128 79.9449 156.343 77.1757 156.111 74.9775C155.85 72.3618 156.468 68.8326 159.12 67.2053C161.127 62.395 164.683 49.2237 164.908 47.1753C165.132 45.127 162.633 39.6387 162.858 37.0729C163.023 35.253 165.668 30.9065 166.375 29.7717L167.249 31.7879C167.271 31.8094 167.36 31.9128 167.514 32.052C166.211 35.2637 166.086 39.3425 166.889 42.5827C167.078 40.5308 167.246 38.5039 167.821 36.5162C168.178 35.2565 168.638 34.0397 169.084 32.8192C170.352 33.094 172.344 32.9049 175.278 31.0635C176.55 30.3309 177.565 29.2244 178.184 27.8947L180.326 25.4431C180.476 26.0418 180.699 26.6195 180.99 27.1632C180.99 25.5859 182.061 22.9559 183.307 20.9861C185.628 17.2606 190.08 16.1436 192.907 14.7626C191.779 15.8118 190.601 16.8038 189.505 17.8851C187.188 20.1618 185.785 22.881 186.156 26.1568C187.438 22.6597 189.455 20.0904 192.325 17.7495C193.039 17.1571 194.11 16.3684 195.021 15.4585C194.628 18.0492 194.307 20.6399 192.611 22.8738C190.605 25.5395 187.152 28.1374 190.255 31.5881C189.398 29.2864 192.511 27.0882 193.825 25.6501C194.979 24.3806 195.895 22.9129 196.527 21.318C202.239 24.733 206.006 33.3545 200.329 34.9354C202.757 36.3199 212.953 37.1122 211.446 25.5752C214.302 27.3594 217.348 28.8439 220.371 30.539L220.611 30.671C221.512 31.1761 222.388 31.7264 223.235 32.3197C226.008 34.2681 227.729 36.245 228.75 38.1185C229.32 39.1358 229.716 40.2403 229.925 41.3872C230.46 44.3741 229.404 46.6151 228.879 47.0968C231.671 47.0255 234.948 44.995 235.098 38.7108C235.098 38.4682 235.098 38.2184 235.098 37.965L235.119 38.0186C235.187 38.2184 235.251 38.4111 235.319 38.6038C237.411 44.9914 237.433 48.617 237.433 48.617C239.218 47.0219 241.224 44.9522 241.488 41.0411C241.613 41.6941 243.466 48.1531 243.03 54.6799C244.305 54.2481 247.604 53.513 249.499 48.435C250.095 50.2193 251.963 54.0162 253.155 58.2163C253.947 61.0033 254.54 63.983 254.415 66.8949C254.212 71.6802 251.916 74.0319 251.734 74.5743C251.898 74.5993 257.235 75.0311 260.509 69.4963C263.679 75.2095 268.588 83.9024 276.039 92.0457Z" fill="#E5ECEF"/>
<path d="M176.15 48.6313C177.378 46.426 179.413 43.3285 182.069 41.0589C182.783 41.6834 183.204 43.0823 183.347 43.9673C183.911 47.3502 180.894 46.1441 176.15 48.6313Z" fill="#FFCE55"/>
<path d="M155.493 78.3998C155.493 78.3998 156.122 72.7223 161.28 71.4376C160.606 68.7541 162.601 63.7832 166.171 64.8109C166.95 57.8523 168.852 49.1095 168.852 49.1095C168.852 49.1095 172.665 50.2692 173.136 48.2174C173.608 46.1655 175.278 39.6529 181.269 37.8687C176.16 37.8687 173.261 42.7682 171.301 46.1583C168.385 46.0691 166.039 43.2143 166.96 38.7537C167.881 34.293 168.388 31.349 168.388 31.349L166.186 28.7619C166.186 28.7619 160.72 34.2181 161.637 37.8687C162.555 41.5193 165.011 46.037 163.779 48.6242C162.548 51.2113 157.964 65.8386 157.964 65.8386C154.108 70.5241 153.766 73.8392 155.493 78.3998Z" fill="white"/>
<path d="M236.176 103.857C231.863 103.857 219.847 112.361 219.847 121.222C213.224 124.077 196.788 130.086 196.788 130.086L222.01 125.922C222.01 125.922 229.296 128.955 234.18 125.922C239.064 122.888 237.85 116.972 237.85 116.972C231.845 122.175 222.167 111.708 236.176 103.857Z" fill="white"/>
<path d="M213.464 45.7123C221.653 53.5844 238.679 72.5724 231.863 89.3443C229.743 77.3613 222.167 60.0826 213.464 45.7123Z" fill="white"/>
<path d="M157.518 79.9485C157.518 79.9485 159.535 81.4936 161.32 79.9485C163.979 77.6468 161.773 71.7124 163.462 70.1922C165.15 68.672 168.617 69.0039 168.97 69.5998C168.053 67.1019 167.271 64.3648 167.867 63.2943C168.463 62.2237 170.591 55.8004 175.007 52.9456C173.122 56.2072 169.845 64.1578 171.287 67.6942C172.626 65.8386 178.813 64.1007 181.551 66.7914C184.289 69.482 184.471 77.0009 181.551 80.6158C178.631 84.2307 170.994 88.0347 168.97 87.4994C162.969 85.1085 160.324 83.1423 157.518 79.9485Z" fill="#9EA7AC"/>
<path d="M171.291 67.6943C175.368 61.4208 179.784 64.0972 183.429 55.8004C183.9 57.0051 183.9 58.3427 183.429 59.5474C189.562 56.8746 197.795 45.2448 195.017 34.3002C197.516 37.7474 199.747 48.5742 198.319 53.6593C196.891 58.7444 190.465 62.313 189.216 64.3648C187.966 66.4167 183.689 69.6284 183.689 69.6284C181.562 65.8458 175.543 66.7308 171.291 67.6943Z" fill="#9EA7AC"/>
<path d="M173.583 50.8045C173.583 50.8045 180.251 51.5575 183.675 49.8232C187.099 48.0889 188.934 42.4185 188.934 40.4559C187.938 43.1322 184.56 44.9629 184.56 44.9629C183.338 46.2143 181.841 47.1637 180.187 47.7356C177.503 48.6313 174.654 49.4663 174.654 49.4663L173.583 50.8045Z" fill="#9EA7AC"/>
<path d="M171.291 25.3789C171.291 25.3789 172.94 23.7267 172.562 21.475C171.962 23.327 170.684 23.6839 170.113 23.6839C169.541 23.6839 167.299 20.1154 167.299 20.1154C167.299 20.1154 169.723 17.8244 168.974 16.2971C168.22 17.8565 166.171 19.2411 166.171 19.2411L163.769 15.9153C163.769 15.9153 166.625 14.6021 166.171 13.3531C165.282 13.3531 175.453 22.4349 175.453 22.4349L177.499 25.7536C177.499 25.7536 177.499 27.7163 174.436 29.629C172.058 26.9348 171.291 25.3789 171.291 25.3789Z" fill="#9EA7AC"/>
<path d="M199.108 48.8419C202.264 47.1575 195.003 36.8802 195.003 34.3002C206.606 44.8451 216.602 61.7777 212.139 76.4478C211.068 73.4146 208.034 67.2196 208.034 67.2196C208.034 67.2196 213.217 81.3152 204.735 90.9502C205.535 78.4604 200.34 59.6473 197.859 57.2278C200.09 53.356 199.108 48.8419 199.108 48.8419Z" fill="#9EA7AC"/>
<path d="M228.672 102.387C222.96 101.895 212.853 105.938 210.176 113.967C210.34 110.998 209.851 107.604 213.574 103.857C208.576 103.857 202.15 110.994 202.15 116.972C193.757 120.897 168.235 133.059 166.179 134.843C164.122 136.627 164.454 138.515 167.878 146.676C165.732 152.685 162.559 156.243 170.602 163.212C173.915 166.067 175.464 166.424 175.464 166.424L178.891 159.387C178.891 159.387 170.791 144.346 173.126 140.552C178.634 136.805 180.726 136.27 180.726 136.27C180.726 136.27 182.686 130.382 192.682 127.527C202.679 124.673 215.374 118.785 215.374 118.785C218.03 105.581 226.241 103.915 228.672 102.387Z" fill="#9EA7AC"/>
<path d="M249.981 129.49C249.981 129.49 251.409 113.432 243.741 106.83C245.697 110.934 246.597 119.141 243.741 123.245C243.78 119.596 242.514 116.052 240.171 113.253C240.171 113.253 244.041 127.706 233.213 131.185C224.677 133.059 221.25 129.133 221.25 129.133C212.146 132.345 199.115 133.594 195.367 134.486C192.868 140.196 192.868 151.722 201.529 159.926C200.892 157.903 200.384 155.843 200.008 153.756C200.008 153.756 202.768 158.216 205.756 157.503C208.744 156.789 212.996 152.725 217.833 159.13C215.912 152.507 213.656 150.009 213.656 150.009L207.498 150.366L203.214 148.046L200.179 140.017L213.656 141.266C213.656 141.266 226.944 148.785 235.344 143.764C243.744 138.743 249.981 129.49 249.981 129.49Z" fill="#9EA7AC"/>
<path d="M174.932 71.2342C175.183 71.2292 175.433 71.2604 175.675 71.327C175.596 73.5145 172.94 76.2943 172.94 76.2943C175.029 75.1132 176.446 74.1104 177.274 72.3369C177.712 72.8023 178.033 73.3649 178.21 73.9785C178.388 74.5921 178.417 75.2391 178.295 75.8661C177.91 77.5398 171.059 80.3624 167.871 81.6649C172.451 78.6995 172.683 71.2949 174.932 71.2342Z" fill="white"/>
<path d="M263.904 70.2493L261.048 65.8386C261.048 65.8386 257.264 71.5019 254.801 72.5724C257.028 62.9375 252.837 51.6788 249.267 45.7123C248.956 47.2578 248.297 48.7123 247.34 49.9656C246.383 51.2188 245.154 52.2379 243.744 52.9456C243.744 52.9456 243.844 46.6865 242.423 41.6906C242.063 40.2925 241.481 38.9612 240.699 37.7474C240.56 39.4896 240.218 41.2094 239.678 42.8718C239.378 43.8784 238.941 44.839 238.379 45.7266C238.379 45.7266 238.172 44.9237 237.84 43.7425C237.483 42.5042 237.004 40.8449 236.472 39.2533C235.737 37.0337 234.916 34.9497 234.273 34.3145C234.184 35.5884 234.559 37.9401 234.17 40.3809C233.942 42.0779 233.227 43.6722 232.11 44.97L231.867 44.6346C231.733 43.7092 231.548 42.7919 231.314 41.8869C230.649 39.2783 229.286 35.4635 226.708 33.3938C226.437 33.1761 226.13 32.9442 225.794 32.7087C224.588 31.8487 223.013 30.8816 221.339 29.911C216.519 27.1311 210.854 24.3619 210.6 24.237C213.731 26.2178 216.636 28.5357 219.261 31.1492C220.363 32.2638 221.383 33.4564 222.313 34.7177C225.087 38.5075 226.166 41.9654 226.383 44.7738C226.478 45.9483 226.417 47.1302 226.201 48.2887C222.928 45.4875 218.926 42.4792 215.912 41.5371C217.53 43.0573 221.267 47.4894 224.727 51.7324L224.673 51.7859C224.827 51.9215 224.973 52.0714 225.123 52.2141C226.826 54.2981 228.447 56.3107 229.7 57.8737C236.262 68.1189 239.546 83.7525 235.705 92.7452C239.721 92.1207 244.119 85.0229 243.648 79.0064C243.291 74.3674 241.435 68.6042 240.317 65.4461C263.633 88.3595 265.6 104.546 266.228 106.127C263.065 101.738 251.902 91.2928 251.552 90.968C251.752 91.3249 260.548 106.773 263.494 113.842C269.416 105.492 274.14 96.8953 277.474 88.5522L263.904 70.2493Z" fill="#9EA7AC"/>
<path d="M189.826 29.1259C192.525 28.4407 196.163 27.1632 197.056 25.2005C199.198 26.0926 204.017 30.7245 202.678 34.3002C205.42 30.9922 202.907 22.8096 196.367 20.1154C196.367 18.688 195.717 13.3352 195.717 13.3352C195.717 13.3352 182.508 22.5634 186.97 30.3427C187.684 26.9134 190.183 23.4162 190.183 23.4162L189.826 29.1259Z" fill="#9EA7AC"/>
<path d="M167.442 14.9518C167.442 14.9518 166.932 5.84136 169.327 2.8688C169.327 5.60227 170.809 10.7481 175.296 13.3495C172.362 7.151 171.726 -6.81255 171.726 -6.81255C164.426 -0.246502 163.854 6.15182 167.442 14.9518Z" fill="#F0ABAB"/>
<path d="M173.458 10.5982C173.458 10.5982 171.458 -4.1504 182.815 -8.07576C194.171 -12.0011 195.003 -10.4559 195.003 -10.4559C195.003 -10.4559 184.168 0.310225 181.258 5.95917C181.258 2.9866 182.372 -2.67661 186.049 -5.46004C179.784 -4.74634 174.065 4.19989 173.458 10.5982Z" fill="#F0ABAB"/>
<path d="M186.82 -0.849537C191.79 -2.06283 201.161 -3.16906 208.091 -0.69966C200.236 0.727741 195.417 3.76097 193.843 6.37668C201.786 2.80818 211.389 1.61273 216.048 5.36679C220.707 9.12086 226.105 16.4292 234.173 9.12086C234.173 11.7901 234.909 13.8099 234.173 16.0723C238.518 17.3248 240.103 16.0723 240.103 16.0723C240.103 16.0723 240.574 4.53177 233.559 1.67696C233.488 5.55593 229.154 8.10027 225.584 7.14748C222.014 6.19469 215.912 -0.5819 215.912 -0.5819C215.912 -0.5819 215.455 -7.09085 200.233 -5.81689C191.79 -5.98104 186.82 -0.849537 186.82 -0.849537Z" fill="#F0ABAB"/>
<path d="M218.44 11.319C219.868 14.7519 222.724 19.7086 227.79 20.5971C232.856 21.4857 237.508 19.1305 240.121 20.5971C242.734 22.0638 250.706 24.7437 254.401 21.4821C255.711 22.9773 252.377 28.4478 249.642 27.8555C242.145 25.9213 243.966 26.032 236.433 25.9499C244.601 28.6798 250.927 32.4874 253.069 35.8168C255.211 39.1462 258.456 45.7122 265.921 44.9629C265.09 46.9969 263.662 48.0246 260.092 47.7356C261.163 49.4949 264.136 51.9643 266.992 51.9643C265.332 52.9456 260.923 52.9456 260.923 52.9456C260.923 52.9456 268.096 60.0826 269.013 65.3747C271.187 71.1771 273.454 72.2548 273.454 72.2548C273.454 72.2548 276.157 61.7776 269.491 55.2045C274.729 52.9456 275.443 52.0535 275.443 52.0535L268.899 48.6313C268.899 48.6313 276.963 44.1814 273.54 39.0284C267.471 40.4558 265.625 40.4773 261.545 37.3905C257.464 34.3037 254.262 29.6112 254.262 29.6112C254.262 29.6112 263.422 25.1113 257.478 13.3352C252.955 17.4212 250.11 18.3061 243.677 16.629C237.243 14.9518 229.275 17.4247 227.369 16.629C225.462 15.8332 218.44 11.319 218.44 11.319Z" fill="#F0ABAB"/>
<path d="M196.192 116.226C195.003 108.375 197.527 96.3279 201.136 90.9502C201.136 95.0539 203.774 101.238 203.774 101.238C203.774 101.238 213.367 89.9117 212.139 81.6649C215.373 89.3443 209.39 101.716 204.071 106.83C198.751 111.944 196.192 116.226 196.192 116.226Z" fill="white"/>
<path d="M224.67 51.7752C232.881 62.6341 235.762 71.145 236.469 76.7761C236.826 79.688 236.911 83.8631 237.165 85.5725C238.631 83.1747 239.276 80.3651 239.003 77.5683C237.636 62.2523 225.223 52.1606 224.67 51.7752Z" fill="#083751"/>
<path d="M163.729 68.7755C162.105 69.5285 162.537 72.7009 162.769 74.9919L163.08 74.635C163.454 71.3841 164.011 69.5927 165.732 69.3964C165.732 69.3822 165.357 68.0226 163.729 68.7755Z" fill="#083751"/>
<path d="M184.168 49.2915C182.261 50.2479 179.302 50.5655 177.517 50.9794C179.748 51.8537 183.018 51.3791 184.775 50.4655C187.077 49.2915 188.034 46.5973 188.138 44.0422C186.881 46.1655 186.26 48.2352 184.168 49.2915Z" fill="#082E44"/>
<path d="M270.455 76.876C270.741 75.8733 271.455 74.3781 271.109 71.6482C271.932 73.2083 272.445 74.9135 272.619 76.669C279.27 68.5971 272.726 57.0423 271.794 56.2322C274.339 55.5185 276.078 53.4524 277.863 50.5226C275.364 50.6011 273.893 50.4548 271.666 49.6626C276.178 47.3145 275.186 40.8984 274.339 37.3192C271.673 39.1676 267.264 38.6859 264.44 36.9623C261.038 34.8783 260.491 32.2626 256.343 29.6611C257.579 29.1871 258.643 28.3513 259.395 27.2631C260.219 26.0468 260.756 24.6595 260.966 23.2057C261.637 19.1519 260.441 14.2167 257.846 10.9836C252.794 17.8209 242.602 15.2051 241.884 15.0303C242.506 10.5875 239.282 -0.314283 231.703 -0.449886C232.452 5.59159 227.854 7.44007 223.584 4.27838C221.939 0.674192 219.622 -2.70518 216.237 -4.72138C212.346 -7.04448 207.241 -7.50482 202.803 -7.36208C199.176 -7.25859 195.685 -6.27011 192.861 -5.28521C193.732 -7.75104 197.02 -10.2169 197.609 -10.4595C189.041 -14.8095 174.679 -9.53173 172.812 0.160329C172.455 -4.57151 172.54 -8.59321 172.672 -9.09994C164.001 -5.4672 163.783 5.96628 163.886 10.0487L153.491 0.153192L164.086 24.6153C163.812 25.3968 163.44 26.3282 163.015 27.3131C162.301 28.9617 161.498 30.7674 160.809 32.3411C160.23 33.55 159.735 34.7971 159.328 36.0737C158.921 37.9329 161.777 44.7345 161.47 47.1147C161.151 49.462 160.692 51.7881 160.095 54.0804C159.281 57.3384 158.271 60.5965 157.385 63.098C157 64.19 156.632 65.1392 156.314 65.8779C152.752 68.7934 152.673 73.5751 152.63 75.8126C152.559 79.5381 158.249 83.7811 160.463 85.13C160.82 85.3441 161.234 85.5867 161.687 85.8437C163.242 86.7276 164.862 87.4934 166.532 88.1346C167.603 88.5669 168.735 88.8294 169.888 88.9126C173.368 88.9804 181.922 83.856 183.068 82.3893C184.214 80.9227 185.264 72.8971 186.467 70.0495C188.53 65.1499 190.037 67.1947 196.62 59.6687C197.93 62.1952 200.847 68.5578 202.411 77.711C194.285 85.5154 191.394 95.7248 191.104 104.792C190.274 105.607 189.497 106.474 188.777 107.387C187.044 109.532 185.57 111.873 184.386 114.363C182.825 117.675 178.906 119.837 174.607 121.639C173.276 122.196 171.905 122.71 170.559 123.234C168.574 123.995 166.632 124.73 164.936 125.515C159.263 128.145 156.925 131.431 155.972 135.178C155.226 138.122 156.836 142.426 157.56 144.139C157.15 147.457 156.068 157.035 156.982 159.426C158.096 162.338 158.364 162.97 162.251 167.691C163.647 174.988 167.21 184.734 174.279 187C180.476 186.022 184.343 169.746 184.45 163.387L183.943 162.288C183.943 162.288 176.724 154.405 176.399 151.757C176.075 149.11 176.478 147.208 174.457 141.305C175.9 140.648 177.4 140.124 178.938 139.739C179.141 141.466 179.905 144.339 182.443 147.946C186.703 153.988 189.348 165.353 192.172 167.138C194.996 168.922 200.383 167.291 200.383 167.291C200.383 167.291 215.184 180.248 229.125 173.054C229.664 169.711 228.479 164.447 226.958 159.769C226.483 158.302 225.969 156.896 225.469 155.619C224.252 152.521 223.092 150.219 222.613 149.802C222.613 149.802 218.494 147.247 209.319 149.124C208.712 148.492 206.048 147.882 205.035 147.739C204.192 146.109 202.593 141.591 203.375 141.12C204.21 140.617 208.858 141.477 211.943 142.155C215.37 142.904 219.3 147.261 226.63 147.397C234.484 147.547 246.083 141.926 249.756 134.907C253.887 127.031 252.484 115.698 246.725 111.237C250.599 119.523 249.581 126.503 246.322 131.781C241.452 139.614 232.356 142.975 226.88 142.872C222.729 142.748 218.677 141.58 215.098 139.475C215.098 139.475 199.876 135.735 198.876 139.178C198.43 140.742 199.262 143.393 200.304 145.834C201.144 147.756 202.098 149.627 203.16 151.436C203.16 151.436 206.791 151.258 207.116 153.874C208.01 153.126 209.025 152.539 210.118 152.136C210.786 151.889 211.476 151.705 212.178 151.586C213.54 152.501 214.577 153.822 215.141 155.362C215.763 157.1 215.702 158.966 215.427 160.714C215.109 162.745 214.495 164.611 214.331 165.942C214.161 167.228 214.508 168.529 215.295 169.561C210.672 168.654 205.581 166.706 202.918 163.366C195.963 163.837 194.689 165.568 192.457 158.691C190.226 151.815 185.239 144.831 183.197 141.99C182.602 141.073 182.367 139.969 182.536 138.889C182.747 137.338 183.347 135.865 184.278 134.607C185.377 133.041 186.88 131.8 188.627 131.017C193.518 128.876 213.385 123.777 216.319 119.859C219.254 115.94 217.919 107.583 232.195 102.259C228.115 100.935 216.316 106.805 213.385 117.193C207.844 120.815 193.693 124.929 189.841 126.068C186.522 127.024 183.548 128.913 181.272 131.51C180.266 132.652 179.467 133.961 178.913 135.378C178.913 135.417 178.881 135.457 178.87 135.496C175.721 136.606 170.591 138.386 170.545 140.849C170.491 143.607 172.455 147.597 172.33 153.313C172.301 154.784 174.793 157.867 177.121 160.429C176.606 165.91 170.602 168.026 168.16 169.857C167.487 170.354 166.953 171.015 166.607 171.777C166.032 169.849 165.645 167.87 165.454 165.867C162.38 161.667 161.255 160.515 160.688 158.73C160.266 157.403 160.881 150.216 161.255 146.241C161.712 146.187 162.708 146.886 164.675 147.978C162.091 143.975 158.821 139.453 160.127 135.378C161.063 132.523 163.226 131.421 166.967 129.354C168.063 128.748 170.138 127.898 172.569 126.906C173.85 126.382 175.228 125.814 176.617 125.219C181.562 123.106 186.613 120.64 187.706 118.438C189.362 115.07 190.562 113.442 191.422 112.015C191.745 114.92 192.376 117.783 193.303 120.554C193.079 100.571 200.34 88.049 203.207 83.8952C203.531 87.8842 203.531 91.8929 203.207 95.8819C207.894 91.4962 207.437 69.5641 199.24 55.6969C202.275 49.0952 199.408 42.4935 197.098 39.9598C198.141 44.6489 198.994 48.1674 197.163 52.546C197.382 50.3428 197.059 48.1195 196.224 46.0691C196.188 45.9692 196.042 46.037 196.063 46.1334C196.745 49.0488 196.356 52.0071 195.349 54.8084C195.017 55.7148 194.635 56.6141 194.214 57.4848C191.404 60.9319 186.931 62.0168 184.628 66.1063C182.897 65.364 179.073 64.0008 176.324 65.1071C175.561 65.3498 174.836 65.7007 174.172 66.1491C173.559 66.5429 173.047 67.0745 172.676 67.7014C173.554 66.72 176.246 65.9171 178.388 65.9492C178.745 65.9742 180.591 66.2276 181.601 68.6042C181.601 68.6542 181.576 68.697 181.572 68.7148L181.615 68.6292C182.108 69.8211 182.39 71.5447 182.179 74.0283C181.59 76.4799 181.019 78.6959 180.18 79.713C178.588 81.6542 173.368 84.7695 170.562 85.3084C169.346 85.5074 168.098 85.3525 166.967 84.8623C167.959 84.0639 169.037 83.3781 170.18 82.8176C175.892 80.0662 178.82 78.3855 179.648 76.8439C180.776 74.7527 178.577 71.2913 176.078 69.8461C177.078 69.5392 178.192 69.8853 179.006 70.0887C177.867 68.8076 174.6 68.0939 173.365 69.2894C170.352 72.2048 170.384 78.6924 165.204 80.8477C163.863 81.3883 162.46 81.7599 161.027 81.954L160.998 81.9326C158.107 79.9306 156.322 77.1722 156.115 74.9811C155.882 72.6616 156.35 69.6284 158.299 67.8441C158.553 67.609 158.829 67.3997 159.124 67.2196C159.763 65.6852 160.552 63.2943 161.362 60.6857C163.058 55.126 164.758 48.5849 164.911 47.1932C165.136 45.1484 162.633 39.6565 162.865 37.0872C162.983 35.724 164.497 32.9477 165.55 31.1599C165.907 30.564 166.2 30.0894 166.378 29.7896L166.832 30.8209L167.253 31.788C167.335 31.8804 167.424 31.9674 167.517 32.0485C166.211 35.2601 166.089 39.3425 166.892 42.5827C167.082 40.5308 167.249 38.5075 167.821 36.5162C168.178 35.2566 168.635 34.0433 169.088 32.8193C170.355 33.094 172.347 32.9049 175.282 31.0671C176.52 30.3433 177.514 29.2675 178.138 27.9768C178.148 27.9488 178.16 27.9214 178.174 27.8947L180.316 25.4432C180.461 26.0424 180.683 26.6204 180.976 27.1632C180.976 25.9428 181.622 24.0943 182.49 22.4099C182.743 21.9139 183.018 21.4322 183.297 20.9825C185.628 17.2606 190.076 16.1401 192.904 14.7626C191.783 15.8082 190.597 16.8003 189.505 17.8779C188.476 18.8576 187.624 20.0067 186.985 21.2752C186.275 22.7288 185.981 24.3504 186.135 25.9606V26.1533C186.163 26.0819 186.192 26.007 186.217 25.9356C186.931 24.0254 187.968 22.2522 189.284 20.6935C190.196 19.6188 191.207 18.6319 192.304 17.7459C193.018 17.1535 194.089 16.3649 194.999 15.4585C194.833 16.8011 194.579 18.1315 194.239 19.441C193.909 20.6766 193.351 21.8397 192.593 22.8703C192.129 23.4841 191.593 24.0907 191.076 24.7081C189.344 26.7742 187.845 28.926 190.233 31.5881C189.38 29.2864 192.493 27.0847 193.803 25.643C194.375 25.0234 194.887 24.3507 195.331 23.6339C195.79 22.8965 196.183 22.1204 196.506 21.3144C197.232 21.7524 197.916 22.2578 198.548 22.8239C203.007 26.7849 205.27 33.5508 200.308 34.9318C202.739 36.3128 212.935 37.105 211.425 25.5716C214.367 27.388 217.494 28.9189 220.596 30.6675C233.245 37.8045 229.932 46.087 228.865 47.1147C231.763 47.0433 235.183 44.8523 235.083 37.9758C235.083 37.9936 235.101 38.015 235.108 38.0364C237.397 44.7809 237.418 48.6277 237.418 48.6277C239.225 47.0362 241.213 44.9629 241.474 41.0554C241.602 41.7084 243.452 48.1638 243.02 54.6942C244.291 54.266 247.589 53.5273 249.485 48.4493C250.081 50.2336 251.952 54.0304 253.144 58.2306C253.937 61.0176 254.526 63.9973 254.404 66.9092C254.197 71.6945 251.905 74.0462 251.723 74.5886C251.888 74.6136 257.228 75.0454 260.495 69.5142C263.708 75.3166 268.735 84.2164 276.403 92.4811C276.653 92.7523 277.035 93.1448 277.474 93.5802C278.013 91.8316 278.574 90.0902 279.17 88.3594C276.403 85.8294 273.279 82.1253 270.455 76.876ZM215.373 151.436C216.696 151.525 218.004 151.764 219.272 152.15C219.904 153.656 220.753 155.719 221.607 157.885C222.142 159.248 222.678 160.654 223.16 162.003C224.434 165.546 225.359 168.661 224.945 169.379C224.53 170.096 222.167 170.349 219.026 170.092C217.141 167.405 217.198 165.407 217.597 162.12C217.651 161.664 217.715 161.178 217.78 160.664C217.905 159.404 217.81 158.132 217.501 156.903C217.022 155 216.307 153.163 215.373 151.436ZM174.425 168.651C176.492 167.098 177.913 164.369 178.788 162.192C179.62 163.055 180.323 163.755 180.726 164.151C180.312 169.661 178.759 179.984 172.958 182.582C171.173 181.868 169.609 179.492 168.367 176.691C169.009 172.583 170.859 171.338 174.425 168.651ZM174.932 71.2306C175.183 71.2256 175.433 71.2568 175.675 71.3234C175.596 73.5109 172.94 76.2908 172.94 76.2908C175.029 75.1096 176.446 74.1068 177.274 72.3333C177.712 72.7987 178.033 73.3614 178.21 73.9749C178.388 74.5885 178.417 75.2355 178.295 75.8626C177.91 77.5362 171.059 80.3589 167.871 81.6614C172.451 78.6995 172.683 71.2949 174.932 71.2342V71.2306ZM174.132 28.9796C172.829 29.9823 171.069 30.5854 169.766 30.2428L169.698 30.0965L167.774 26.1105L159.563 9.11727L165.047 14.6342C164.75 15.1659 164.358 15.7583 163.769 15.8974C164.111 15.9758 164.47 15.9543 164.801 15.8353C165.131 15.7164 165.421 15.5052 165.636 15.2265L168.22 17.8387C167.692 19.0163 166.825 20.4651 165.486 20.6935C167.203 21.1859 168.517 20.094 169.127 18.7594L172.419 22.0816C172.062 23.3663 171.348 24.9364 169.599 25.6501C169.178 25.8254 168.736 25.9453 168.285 26.007C170.241 26.4709 171.644 25.8892 172.533 24.9364C172.983 24.4343 173.314 23.8381 173.504 23.1914L174.693 24.3869L175.825 25.5324C176.199 26.7207 175.371 28.0339 174.132 28.9831V28.9796ZM268.738 73.411C267.696 72.4225 263.74 67.8334 262.055 65.6209C262.873 63.0695 262.726 61.3066 262.166 58.7088C261.452 62.991 258.389 67.9084 256.811 69.8817C257.525 67.2125 257.246 64.3434 256.811 61.6563C256.279 58.6439 255.401 55.7029 254.194 52.8921C251.591 46.5402 251.591 46.5402 249.342 41.0161C248.039 46.2939 246.925 48.7562 245.19 50.8902C245.283 49.201 245.172 47.5068 244.858 45.8443C244.733 45.1484 243.659 39.7386 238.586 32.466C239.032 35.8382 240.371 39.8349 238.778 43.6069C238.671 40.7806 236.808 32.598 231.153 29.3328C232.734 32.0592 234.127 40.6022 232.224 42.7897C232.41 38.0792 229.129 33.7399 225.552 30.8816C222.91 28.7726 208.287 20.6186 208.237 20.6186C208.262 20.6542 210.961 32.4267 205.052 33.3581C206.32 30.5033 204.456 25.4146 201.461 22.0995C200.197 20.6971 198.73 19.6015 197.209 19.1412C197.241 18.9877 197.27 18.8343 197.295 18.6773C197.787 15.901 197.595 12.6751 196.656 10.2306C194.096 12.9784 187.659 13.0962 184.168 16.1222C182.647 17.4176 181.055 19.4017 180.409 21.6713L179.295 23.2093L178.474 24.3405C178.433 24.111 178.348 23.8915 178.224 23.6946L178.045 23.5233L168.606 14.5378C166.41 10.3627 165.811 0.285226 170.52 -4.20038C170.309 -1.54185 170.491 11.1941 175.296 13.3352C171.965 5.48454 175.503 -9.12848 192.207 -9.2177C189.148 -6.93742 186.806 -3.20477 185.781 -0.706819C184.677 0.499296 183.699 1.81451 182.861 3.21854C184.068 2.50484 187.973 -4.12901 202.628 -4.17183C206.52 -4.17183 210.747 -3.74718 214.195 -1.78451C208.269 -3.25116 201.954 -0.000253677 197.034 3.30775C200.504 2.19438 205.545 -1.14218 212.646 0.245973C217.415 1.17735 219.375 5.57018 223.313 7.83975C226.526 9.68823 231.089 9.55263 233.191 6.09832C233.713 5.23939 233.975 4.24786 233.945 3.24352C234.846 4.19978 235.633 5.25716 236.29 6.3945C237.752 8.92574 238.364 11.8585 238.036 14.7626C236.359 14.6571 234.676 14.7361 233.016 14.9982C231.231 15.2158 229.446 15.43 227.661 15.2265C225.158 14.9142 222.748 14.0855 220.582 12.7928C219.837 12.3498 219.121 11.8586 218.44 11.3226C218.848 11.9113 219.295 12.4716 219.779 12.9998C221.57 14.99 223.904 16.4139 226.494 17.0964C230.682 18.2241 234.766 16.6539 238.95 17.3926C241.652 17.8672 244.748 19.0698 247.914 19.3731C250.356 19.6051 252.837 19.3018 255.211 17.7245C256.173 17.0637 256.983 16.2047 257.585 15.2051C258.413 17.4804 258.517 19.9558 257.882 22.2922L257.775 22.649C257.398 23.9668 256.715 25.1772 255.782 26.1819L255.679 26.2889C254.776 27.1775 253.683 27.4808 252.655 28.0946C249.199 26.6672 245.333 26.1819 241.588 25.9535C244.951 27.024 248.4 28.0946 251.584 29.6148C254.769 31.1349 256.911 33.5401 259.138 36.2165C260.991 38.4504 263.151 40.4737 266.053 41.1624C268.047 41.6352 270.134 41.5337 272.073 40.8698C272.594 43.7781 269.895 48.5207 266.136 49.1487C267.955 50.3078 269.914 51.2323 271.965 51.9001C270.537 53.1883 267.128 54.1446 264.932 54.2588C270.205 57.0209 272.854 64.3791 272.737 70.3564C271.894 68.5293 270.919 66.431 268.71 64.8359C269.338 67.4159 269.224 70.5348 268.752 73.4146L268.738 73.411Z" fill="#083751"/>
<path d="M185.089 43.6675C184.853 42.3757 184.375 40.9483 183.468 39.9848C184.798 39.0412 186.327 38.416 187.938 38.1577C183.954 37.2014 181.276 38.7073 178.242 41.6549C176.346 43.4962 174.09 48.1246 173.629 49.4806C173.083 51.0864 169.345 49.7732 169.345 49.7732C170.123 50.7581 171.741 52.0142 173.461 52.0464C174.75 52.0713 174.782 51.3791 175.375 50.1515C178.884 48.5421 182.679 48.5207 184.114 47.3466C185.21 46.4509 185.328 45.0949 185.089 43.6675ZM176.164 48.6277C177.392 46.4224 179.427 43.3249 182.083 41.0554C182.797 41.6799 183.218 43.0787 183.361 43.9637C183.911 47.3502 180.894 46.1441 176.15 48.6313L176.164 48.6277Z" fill="#083751"/>
<path d="M163.504 64.4255C160.07 66.9413 160.106 73.2718 161.523 75.4879C161.148 72.4975 161.944 66.2562 164.804 66.2098C166.675 66.1705 167.621 66.7415 168.056 67.1411L168.37 67.5158C168.41 67.2266 168.396 66.9325 168.328 66.6487C168.292 62.9874 170.416 59.6937 171.726 56.2394C169.599 58.586 167.808 61.2175 166.407 64.058C165.604 63.6262 164.597 63.6262 163.504 64.4255Z" fill="#083751"/>
</g>
</svg>
